PathFileType	4	(X/Y/Z)	TVC_4_Cal_03_0_static_RCNL2025.trc
DataRate	CameraRate	NumFrames	NumMarkers	Units	OrigDataRate	OrigDataStartFrame	OrigNumFrames
100	100	4	27	mm	100	143	228
Frame#	Time	R_Shoulder			L_Shoulder			C7			J_Notch			R_Elbow			L_Elbow			R_Wrist			L_Wrist			R_Asis			L_Asis			R_Psis			L_Psis			Sacral			Thoracic			Sternum			R_Thigh_Lateral			R_Knee_Lateral			R_Shank_Lateral			R_Ankle_Lateral			R_Heel			R_Toe			L_Thigh_Lateral			L_Knee_Lateral			L_Shank_Lateral			L_Ankle_Lateral			L_Heel			L_Toe		
		X1	Y1	Z1	X2	Y2	Z2	X3	Y3	Z3	X4	Y4	Z4	X5	Y5	Z5	X6	Y6	Z6	X7	Y7	Z7	X8	Y8	Z8	X9	Y9	Z9	X10	Y10	Z10	X11	Y11	Z11	X12	Y12	Z12	X13	Y13	Z13	X14	Y14	Z14	X15	Y15	Z15	X16	Y16	Z16	X17	Y17	Z17	X18	Y18	Z18	X19	Y19	Z19	X20	Y20	Z20	X21	Y21	Z21	X22	Y22	Z22	X23	Y23	Z23	X24	Y24	Z24	X25	Y25	Z25	X26	Y26	Z26	X27	Y27	Z27
143	1.42000000	-245.346054	1345.008789	-58.475285	-207.622040	1345.497070	-419.503906	-282.428436	1391.660767	-230.658340	-133.198868	1271.722778	-237.982468	-232.391479	1133.722534	147.383911	-194.912628	1112.283081	-620.577271	-153.702316	955.966492	271.138000	-81.825619	937.043427	-686.115173	-233.482941	882.846741	-43.763527	-244.738571	866.199524	-398.221344	-378.247711	920.443481	-166.491013	-378.237335	915.443359	-258.105347	-378.242523	917.943420	-212.298180	-360.329346	1148.933105	-234.053589	-100.120293	1079.287720	-227.421616	-259.514069	541.614502	-6.580020	-282.337830	423.849518	-47.714794	-302.135712	281.972626	21.941563	-311.905182	60.748714	-60.639336	-356.646149	52.064339	-109.139908	-179.183472	44.240662	-72.790161	-245.611969	517.921082	-419.829559	-262.092682	429.623840	-379.728333	-262.309906	316.390228	-429.244049	-293.943512	60.821415	-363.509216	-341.430603	49.798573	-319.337311	-158.075592	41.979721	-344.075623
144	1.43000000	-245.221512	1345.005737	-58.374828	-207.630020	1345.589355	-419.465668	-282.308228	1391.621948	-230.618454	-133.147049	1271.711060	-237.843887	-232.192444	1133.760010	147.451462	-194.897446	1112.434570	-620.599670	-153.535179	955.982941	271.154297	-81.881165	937.219330	-686.241058	-233.471664	882.842285	-43.768444	-244.726837	866.182434	-398.277740	-378.182190	920.432678	-166.436035	-378.272827	915.421021	-258.082581	-378.227509	917.926849	-212.259308	-360.270020	1148.928833	-233.998306	-99.984657	1079.375244	-227.367996	-259.493866	541.691772	-6.556160	-282.249329	423.793884	-47.569279	-302.184174	282.004089	21.905653	-311.919312	60.647621	-60.715797	-356.694427	52.079762	-109.185425	-179.186035	44.235489	-72.897209	-245.648819	517.888733	-419.837189	-262.085571	429.636230	-379.710510	-262.265778	316.404572	-429.279022	-293.960846	60.791126	-363.453552	-341.447266	49.799858	-319.316376	-158.101456	42.024418	-344.100220
145	1.44000000	-245.193405	1344.976807	-58.355198	-207.674103	1345.687622	-419.403534	-282.408569	1391.634399	-230.508987	-133.109238	1271.791016	-237.918732	-231.994186	1133.693359	147.455307	-194.899933	1112.592529	-620.628784	-153.332436	955.956573	271.165298	-81.851185	937.418304	-686.497314	-233.474777	882.843811	-43.767109	-244.722534	866.187073	-398.327484	-378.176483	920.429138	-166.433319	-378.279816	915.430908	-258.051239	-378.228149	917.930023	-212.242279	-360.288208	1148.863281	-233.926682	-99.945831	1079.455811	-227.394455	-259.627075	541.591064	-6.597363	-282.295380	423.843079	-47.568874	-302.243469	281.975891	21.895947	-311.895142	60.700111	-60.651920	-356.655396	52.050732	-109.140007	-179.189575	44.227856	-72.796341	-245.704086	517.881531	-419.804199	-262.137390	429.621033	-379.695679	-262.299561	316.342560	-429.193878	-293.971527	60.766670	-363.463745	-341.452332	49.774502	-319.307953	-158.132278	42.002560	-344.075287
146	1.45000000	-245.146149	1344.963989	-58.316910	-207.649582	1345.707153	-419.338379	-282.372375	1391.616211	-230.440506	-133.126053	1271.802612	-237.858200	-231.999710	1133.621826	147.506531	-194.914719	1112.719971	-620.600769	-153.114059	955.959808	271.174400	-81.908131	937.600128	-686.547272	-233.445862	882.785400	-43.620380	-244.747482	866.152100	-398.262909	-378.202759	920.353699	-166.406326	-378.283539	915.402039	-258.046875	-378.243149	917.877869	-212.226601	-360.369843	1148.871094	-233.880966	-99.742607	1079.546143	-227.411560	-259.686768	541.592102	-6.637323	-282.332031	423.830566	-47.556210	-302.289001	281.922943	21.929705	-311.884613	60.752308	-60.664349	-356.654266	52.030186	-109.133682	-179.234299	44.232254	-72.820778	-245.728897	517.852844	-419.767578	-262.162537	429.644775	-379.671417	-262.247009	316.361755	-429.407104	-293.968750	60.766899	-363.464600	-341.431305	49.797600	-319.339050	-158.129181	42.063938	-344.085571
